<?xml version="1.0" encoding="iso-8859-1"?>
<!-- Uploaded to: SVG Repo, www.svgrepo.com, Generator: SVG Repo Mixer Tools -->
<svg height="800px" width="800px" version="1.1" id="Capa_1" xmlns="http://www.w3.org/2000/svg" xmlns:xlink="http://www.w3.org/1999/xlink" 
	 viewBox="0 0 24.393 24.393" xml:space="preserve">
<g>
	<path style="fill:#ffffff;" d="M12.196,0C5.46,0,0,5.46,0,12.196s5.46,12.197,12.196,12.197s12.197-5.461,12.197-12.197
		S18.932,0,12.196,0z M12.196,21.782c-5.295,0-9.586-4.291-9.586-9.586S6.901,2.61,12.196,2.61s9.586,4.291,9.586,9.586
		S17.491,21.782,12.196,21.782z M14.1,7.436v9.519c0,1.051-0.852,1.904-1.904,1.904s-1.904-0.852-1.904-1.904V7.436
		c0-1.051,0.852-1.904,1.904-1.904S14.1,6.385,14.1,7.436z"/>
</g>
</svg>