<?xml version='1.0' encoding='iso-8859-1'?>
<!DOCTYPE svg PUBLIC '-//W3C//DTD SVG 1.1//EN' 'http://www.w3.org/Graphics/SVG/1.1/DTD/svg11.dtd'>
<!-- Uploaded to: SVG Repo, www.svgrepo.com, Generator: SVG Repo Mixer Tools -->
<svg fill="#000000" height="800px" width="800px" version="1.1" xmlns="http://www.w3.org/2000/svg" viewBox="0 0 456 456" xmlns:xlink="http://www.w3.org/1999/xlink" enable-background="new 0 0 456 456">
  <g>
    <path d="M426.691,190.573H76.071v-14.152c0-6.892,5.607-12.499,12.499-12.499h271.486c17.92,0,32.499-14.579,32.499-32.499   s-14.579-32.499-32.499-32.499H84.07c-6.892,0-12.498-5.607-12.498-12.499V65.427c0-5.523-4.478-10-10-10s-10,4.477-10,10v20.999   c0,17.92,14.578,32.499,32.498,32.499h275.986c6.892,0,12.499,5.607,12.499,12.499s-5.607,12.499-12.499,12.499H88.57   c-17.92,0-32.499,14.579-32.499,32.499v14.152H29.308C13.147,190.573,0,203.721,0,219.881v151.384   c0,16.161,13.147,29.308,29.308,29.308h397.384c16.161,0,29.309-13.147,29.309-29.308V219.881   C456,203.721,442.853,190.573,426.691,190.573z M436,371.265c0,5.133-4.176,9.308-9.309,9.308H29.308   c-5.132,0-9.308-4.176-9.308-9.308V219.881c0-5.133,4.176-9.308,9.308-9.308h397.384c5.133,0,9.309,4.176,9.309,9.308V371.265z"/>
    <path d="m312.495,221.573h-271.495c-5.522,0-10,4.477-10,10v128c0,5.523 4.478,10 10,10h271.495c5.522,0 10-4.477 10-10v-128c0-5.522-4.477-10-10-10zm-10,42.667h-20.934v-22.667h20.934v22.667zm-67.432,0v-22.667h26.498v22.667h-26.498zm-20.999,42.667v-22.667h26.498v22.667h-26.498zm-92.995-0v-22.667h26.498v22.667h-26.498zm-20-22.667v22.667h-23.498v-22.667h23.498zm66.498,0h26.497v22.667h-26.497v-22.667zm47.496-20h-26.497v-22.667h26.497v22.667zm-46.497,0h-26.498v-22.667h26.498v22.667zm-46.498,0h-26.498v-22.667h26.498v22.667zm-64.497,42.667h-6.571v-22.667h6.571v22.667zm64.497,20v22.667h-26.498v-22.667h26.498zm20,0h72.995v22.667h-72.995v-22.667zm92.995,0h26.498v22.667h-26.498v-22.667zm25.5-20v-22.667h41.933v22.667h-41.933zm-184.993-65.334v22.667h-24.57v-22.667h24.57zm-24.57,85.334h24.57v22.667h-24.57v-22.667zm230.562,22.666v-22.667h20.934v22.667h-20.934z"/>
    <path d="m415,221.573h-66.942c-5.522,0-10,4.477-10,10v128c0,5.523 4.478,10 10,10h66.942c5.522,0 10-4.477 10-10v-128c0-5.523-4.478-10-10-10zm-10,42.667h-13.944v-22.667h13.944v22.667zm-13.944,20h13.944v22.667h-13.944v-22.667zm-20,22.667h-12.998v-22.667h12.998v22.667zm0-65.334v22.667h-12.998v-22.667h12.998zm-12.998,85.334h12.998v22.667h-12.998v-22.667zm32.998,22.666v-22.667h13.944v22.667h-13.944z"/>
  </g>
</svg>